<mxfile host="app.diagrams.net" modified="2024-05-06T14:20:57.338Z" agent="Mozilla/5.0 (Windows NT 10.0; Win64; x64) AppleWebKit/537.36 (KHTML, like Gecko) Chrome/124.0.0.0 Safari/537.36" etag="HeBMfhGIfNtl29sDay6c" version="24.3.1" type="device">
  <diagram name="Page-1" id="RivyvHpW5EEdRlWSd5YH">
    <mxGraphModel dx="934" dy="525" grid="1" gridSize="10" guides="1" tooltips="1" connect="1" arrows="1" fold="1" page="1" pageScale="1" pageWidth="827" pageHeight="1169" math="0" shadow="0">
      <root>
        <mxCell id="0" />
        <mxCell id="1" parent="0" />
        <mxCell id="1ZTYlAhCIOIMHy5LCIr5-66" style="edgeStyle=orthogonalEdgeStyle;rounded=0;orthogonalLoop=1;jettySize=auto;html=1;entryX=0;entryY=0.5;entryDx=0;entryDy=0;endArrow=none;endFill=0;" parent="1" source="1ZTYlAhCIOIMHy5LCIr5-2" target="1ZTYlAhCIOIMHy5LCIr5-36" edge="1">
          <mxGeometry relative="1" as="geometry" />
        </mxCell>
        <mxCell id="1ZTYlAhCIOIMHy5LCIr5-68" value="0" style="edgeLabel;html=1;align=center;verticalAlign=middle;resizable=0;points=[];" parent="1ZTYlAhCIOIMHy5LCIr5-66" vertex="1" connectable="0">
          <mxGeometry x="-0.7846" y="6" relative="1" as="geometry">
            <mxPoint x="-8" y="-9" as="offset" />
          </mxGeometry>
        </mxCell>
        <mxCell id="1ZTYlAhCIOIMHy5LCIr5-69" value="*" style="edgeLabel;html=1;align=center;verticalAlign=middle;resizable=0;points=[];" parent="1ZTYlAhCIOIMHy5LCIr5-66" vertex="1" connectable="0">
          <mxGeometry x="0.8106" y="2" relative="1" as="geometry">
            <mxPoint y="-13" as="offset" />
          </mxGeometry>
        </mxCell>
        <mxCell id="1ZTYlAhCIOIMHy5LCIr5-93" style="edgeStyle=orthogonalEdgeStyle;rounded=0;orthogonalLoop=1;jettySize=auto;html=1;entryX=0;entryY=0.5;entryDx=0;entryDy=0;endArrow=none;endFill=0;" parent="1" source="1ZTYlAhCIOIMHy5LCIr5-2" edge="1">
          <mxGeometry relative="1" as="geometry">
            <mxPoint x="450.46000000000004" y="995" as="targetPoint" />
            <Array as="points">
              <mxPoint x="180" y="995" />
            </Array>
          </mxGeometry>
        </mxCell>
        <mxCell id="1ZTYlAhCIOIMHy5LCIr5-94" value="*" style="edgeLabel;html=1;align=center;verticalAlign=middle;resizable=0;points=[];" parent="1ZTYlAhCIOIMHy5LCIr5-93" vertex="1" connectable="0">
          <mxGeometry x="0.9325" y="-3" relative="1" as="geometry">
            <mxPoint y="12" as="offset" />
          </mxGeometry>
        </mxCell>
        <mxCell id="1ZTYlAhCIOIMHy5LCIr5-95" value="0" style="edgeLabel;html=1;align=center;verticalAlign=middle;resizable=0;points=[];" parent="1ZTYlAhCIOIMHy5LCIr5-93" vertex="1" connectable="0">
          <mxGeometry x="-0.9715" relative="1" as="geometry">
            <mxPoint x="-10" as="offset" />
          </mxGeometry>
        </mxCell>
        <mxCell id="1ZTYlAhCIOIMHy5LCIr5-2" value="User" style="swimlane;fontStyle=0;childLayout=stackLayout;horizontal=1;startSize=30;horizontalStack=0;resizeParent=1;resizeParentMax=0;resizeLast=0;collapsible=1;marginBottom=0;whiteSpace=wrap;html=1;fillColor=#f8cecc;strokeColor=#b85450;" parent="1" vertex="1">
          <mxGeometry x="10" y="360" width="340" height="390" as="geometry" />
        </mxCell>
        <mxCell id="1ZTYlAhCIOIMHy5LCIr5-3" value="id" style="text;strokeColor=none;fillColor=none;align=left;verticalAlign=middle;spacingLeft=4;spacingRight=4;overflow=hidden;points=[[0,0.5],[1,0.5]];portConstraint=eastwest;rotatable=0;whiteSpace=wrap;html=1;" parent="1ZTYlAhCIOIMHy5LCIr5-2" vertex="1">
          <mxGeometry y="30" width="340" height="30" as="geometry" />
        </mxCell>
        <mxCell id="1ZTYlAhCIOIMHy5LCIr5-4" value="lastname" style="text;strokeColor=none;fillColor=none;align=left;verticalAlign=middle;spacingLeft=4;spacingRight=4;overflow=hidden;points=[[0,0.5],[1,0.5]];portConstraint=eastwest;rotatable=0;whiteSpace=wrap;html=1;" parent="1ZTYlAhCIOIMHy5LCIr5-2" vertex="1">
          <mxGeometry y="60" width="340" height="30" as="geometry" />
        </mxCell>
        <mxCell id="1ZTYlAhCIOIMHy5LCIr5-5" value="firstname" style="text;strokeColor=none;fillColor=none;align=left;verticalAlign=middle;spacingLeft=4;spacingRight=4;overflow=hidden;points=[[0,0.5],[1,0.5]];portConstraint=eastwest;rotatable=0;whiteSpace=wrap;html=1;" parent="1ZTYlAhCIOIMHy5LCIr5-2" vertex="1">
          <mxGeometry y="90" width="340" height="30" as="geometry" />
        </mxCell>
        <mxCell id="1ZTYlAhCIOIMHy5LCIr5-7" value="email" style="text;strokeColor=none;fillColor=none;align=left;verticalAlign=middle;spacingLeft=4;spacingRight=4;overflow=hidden;points=[[0,0.5],[1,0.5]];portConstraint=eastwest;rotatable=0;whiteSpace=wrap;html=1;" parent="1ZTYlAhCIOIMHy5LCIr5-2" vertex="1">
          <mxGeometry y="120" width="340" height="30" as="geometry" />
        </mxCell>
        <mxCell id="1ZTYlAhCIOIMHy5LCIr5-11" value="password" style="text;strokeColor=none;fillColor=none;align=left;verticalAlign=middle;spacingLeft=4;spacingRight=4;overflow=hidden;points=[[0,0.5],[1,0.5]];portConstraint=eastwest;rotatable=0;whiteSpace=wrap;html=1;" parent="1ZTYlAhCIOIMHy5LCIr5-2" vertex="1">
          <mxGeometry y="150" width="340" height="30" as="geometry" />
        </mxCell>
        <mxCell id="1ZTYlAhCIOIMHy5LCIr5-19" value="avatar" style="text;strokeColor=none;fillColor=none;align=left;verticalAlign=middle;spacingLeft=4;spacingRight=4;overflow=hidden;points=[[0,0.5],[1,0.5]];portConstraint=eastwest;rotatable=0;whiteSpace=wrap;html=1;" parent="1ZTYlAhCIOIMHy5LCIr5-2" vertex="1">
          <mxGeometry y="180" width="340" height="30" as="geometry" />
        </mxCell>
        <mxCell id="1ZTYlAhCIOIMHy5LCIr5-6" value="username" style="text;strokeColor=none;fillColor=none;align=left;verticalAlign=middle;spacingLeft=4;spacingRight=4;overflow=hidden;points=[[0,0.5],[1,0.5]];portConstraint=eastwest;rotatable=0;whiteSpace=wrap;html=1;" parent="1ZTYlAhCIOIMHy5LCIr5-2" vertex="1">
          <mxGeometry y="210" width="340" height="30" as="geometry" />
        </mxCell>
        <mxCell id="1ZTYlAhCIOIMHy5LCIr5-23" value="studyingClass" style="text;strokeColor=none;fillColor=none;align=left;verticalAlign=middle;spacingLeft=4;spacingRight=4;overflow=hidden;points=[[0,0.5],[1,0.5]];portConstraint=eastwest;rotatable=0;whiteSpace=wrap;html=1;" parent="1ZTYlAhCIOIMHy5LCIr5-2" vertex="1">
          <mxGeometry y="240" width="340" height="30" as="geometry" />
        </mxCell>
        <mxCell id="1ZTYlAhCIOIMHy5LCIr5-15" value="itemList" style="text;strokeColor=none;fillColor=none;align=left;verticalAlign=middle;spacingLeft=4;spacingRight=4;overflow=hidden;points=[[0,0.5],[1,0.5]];portConstraint=eastwest;rotatable=0;whiteSpace=wrap;html=1;" parent="1ZTYlAhCIOIMHy5LCIr5-2" vertex="1">
          <mxGeometry y="270" width="340" height="30" as="geometry" />
        </mxCell>
        <mxCell id="1ZTYlAhCIOIMHy5LCIr5-16" value="role" style="text;strokeColor=none;fillColor=none;align=left;verticalAlign=middle;spacingLeft=4;spacingRight=4;overflow=hidden;points=[[0,0.5],[1,0.5]];portConstraint=eastwest;rotatable=0;whiteSpace=wrap;html=1;" parent="1ZTYlAhCIOIMHy5LCIr5-2" vertex="1">
          <mxGeometry y="300" width="340" height="30" as="geometry" />
        </mxCell>
        <mxCell id="1ZTYlAhCIOIMHy5LCIr5-42" value="favorite_role" style="text;strokeColor=none;fillColor=none;align=left;verticalAlign=middle;spacingLeft=4;spacingRight=4;overflow=hidden;points=[[0,0.5],[1,0.5]];portConstraint=eastwest;rotatable=0;whiteSpace=wrap;html=1;" parent="1ZTYlAhCIOIMHy5LCIr5-2" vertex="1">
          <mxGeometry y="330" width="340" height="30" as="geometry" />
        </mxCell>
        <mxCell id="1ZTYlAhCIOIMHy5LCIr5-9" value="pointsNumber" style="text;strokeColor=none;fillColor=none;align=left;verticalAlign=middle;spacingLeft=4;spacingRight=4;overflow=hidden;points=[[0,0.5],[1,0.5]];portConstraint=eastwest;rotatable=0;whiteSpace=wrap;html=1;" parent="1ZTYlAhCIOIMHy5LCIr5-2" vertex="1">
          <mxGeometry y="360" width="340" height="30" as="geometry" />
        </mxCell>
        <mxCell id="1ZTYlAhCIOIMHy5LCIr5-26" value="" style="endArrow=none;html=1;rounded=0;entryX=0.411;entryY=1.081;entryDx=0;entryDy=0;entryPerimeter=0;" parent="1ZTYlAhCIOIMHy5LCIr5-2" target="1ZTYlAhCIOIMHy5LCIr5-9" edge="1">
          <mxGeometry width="50" height="50" relative="1" as="geometry">
            <mxPoint x="140" y="30" as="sourcePoint" />
            <mxPoint x="140" y="360" as="targetPoint" />
          </mxGeometry>
        </mxCell>
        <mxCell id="1ZTYlAhCIOIMHy5LCIr5-8" value="created_at" style="text;strokeColor=none;fillColor=none;align=left;verticalAlign=middle;spacingLeft=4;spacingRight=4;overflow=hidden;points=[[0,0.5],[1,0.5]];portConstraint=eastwest;rotatable=0;whiteSpace=wrap;html=1;" parent="1" vertex="1">
          <mxGeometry x="180" y="390" width="170" height="30" as="geometry" />
        </mxCell>
        <mxCell id="1ZTYlAhCIOIMHy5LCIr5-10" value="lastLogged_at" style="text;strokeColor=none;fillColor=none;align=left;verticalAlign=middle;spacingLeft=4;spacingRight=4;overflow=hidden;points=[[0,0.5],[1,0.5]];portConstraint=eastwest;rotatable=0;whiteSpace=wrap;html=1;" parent="1" vertex="1">
          <mxGeometry x="180" y="450" width="170" height="30" as="geometry" />
        </mxCell>
        <mxCell id="1ZTYlAhCIOIMHy5LCIr5-18" value="updated_at" style="text;strokeColor=none;fillColor=none;align=left;verticalAlign=middle;spacingLeft=4;spacingRight=4;overflow=hidden;points=[[0,0.5],[1,0.5]];portConstraint=eastwest;rotatable=0;whiteSpace=wrap;html=1;" parent="1" vertex="1">
          <mxGeometry x="180" y="420" width="170" height="30" as="geometry" />
        </mxCell>
        <mxCell id="1ZTYlAhCIOIMHy5LCIr5-25" value="warned_at" style="text;strokeColor=none;fillColor=none;align=left;verticalAlign=middle;spacingLeft=4;spacingRight=4;overflow=hidden;points=[[0,0.5],[1,0.5]];portConstraint=eastwest;rotatable=0;whiteSpace=wrap;html=1;" parent="1" vertex="1">
          <mxGeometry x="180" y="480" width="170" height="30" as="geometry" />
        </mxCell>
        <mxCell id="1ZTYlAhCIOIMHy5LCIr5-14" value="is_verified" style="text;strokeColor=none;fillColor=none;align=left;verticalAlign=middle;spacingLeft=4;spacingRight=4;overflow=hidden;points=[[0,0.5],[1,0.5]];portConstraint=eastwest;rotatable=0;whiteSpace=wrap;html=1;" parent="1" vertex="1">
          <mxGeometry x="180" y="540" width="170" height="30" as="geometry" />
        </mxCell>
        <mxCell id="1ZTYlAhCIOIMHy5LCIr5-24" value="banned_at" style="text;strokeColor=none;fillColor=none;align=left;verticalAlign=middle;spacingLeft=4;spacingRight=4;overflow=hidden;points=[[0,0.5],[1,0.5]];portConstraint=eastwest;rotatable=0;whiteSpace=wrap;html=1;" parent="1" vertex="1">
          <mxGeometry x="180" y="510" width="170" height="30" as="geometry" />
        </mxCell>
        <mxCell id="1ZTYlAhCIOIMHy5LCIr5-22" value="is_warned" style="text;strokeColor=none;fillColor=none;align=left;verticalAlign=middle;spacingLeft=4;spacingRight=4;overflow=hidden;points=[[0,0.5],[1,0.5]];portConstraint=eastwest;rotatable=0;whiteSpace=wrap;html=1;" parent="1" vertex="1">
          <mxGeometry x="180" y="570" width="170" height="30" as="geometry" />
        </mxCell>
        <mxCell id="1ZTYlAhCIOIMHy5LCIr5-17" value="is_banned" style="text;strokeColor=none;fillColor=none;align=left;verticalAlign=middle;spacingLeft=4;spacingRight=4;overflow=hidden;points=[[0,0.5],[1,0.5]];portConstraint=eastwest;rotatable=0;whiteSpace=wrap;html=1;" parent="1" vertex="1">
          <mxGeometry x="180" y="600" width="170" height="30" as="geometry" />
        </mxCell>
        <mxCell id="1ZTYlAhCIOIMHy5LCIr5-12" value="is_password_requested" style="text;strokeColor=none;fillColor=none;align=left;verticalAlign=middle;spacingLeft=4;spacingRight=4;overflow=hidden;points=[[0,0.5],[1,0.5]];portConstraint=eastwest;rotatable=0;whiteSpace=wrap;html=1;" parent="1" vertex="1">
          <mxGeometry x="180" y="630" width="170" height="30" as="geometry" />
        </mxCell>
        <mxCell id="1ZTYlAhCIOIMHy5LCIr5-13" value="passwordNumberRequest" style="text;strokeColor=none;fillColor=none;align=left;verticalAlign=middle;spacingLeft=4;spacingRight=4;overflow=hidden;points=[[0,0.5],[1,0.5]];portConstraint=eastwest;rotatable=0;whiteSpace=wrap;html=1;" parent="1" vertex="1">
          <mxGeometry x="180" y="660" width="170" height="30" as="geometry" />
        </mxCell>
        <mxCell id="1ZTYlAhCIOIMHy5LCIr5-20" value="warnNumber" style="text;strokeColor=none;fillColor=none;align=left;verticalAlign=middle;spacingLeft=4;spacingRight=4;overflow=hidden;points=[[0,0.5],[1,0.5]];portConstraint=eastwest;rotatable=0;whiteSpace=wrap;html=1;" parent="1" vertex="1">
          <mxGeometry x="180" y="690" width="170" height="30" as="geometry" />
        </mxCell>
        <mxCell id="1ZTYlAhCIOIMHy5LCIr5-67" style="edgeStyle=orthogonalEdgeStyle;rounded=0;orthogonalLoop=1;jettySize=auto;html=1;entryX=0.5;entryY=0;entryDx=0;entryDy=0;endArrow=none;endFill=0;" parent="1" source="1ZTYlAhCIOIMHy5LCIr5-27" target="1ZTYlAhCIOIMHy5LCIr5-46" edge="1">
          <mxGeometry relative="1" as="geometry" />
        </mxCell>
        <mxCell id="1ZTYlAhCIOIMHy5LCIr5-70" value="2" style="edgeLabel;html=1;align=center;verticalAlign=middle;resizable=0;points=[];" parent="1ZTYlAhCIOIMHy5LCIr5-67" vertex="1" connectable="0">
          <mxGeometry x="-0.7513" y="-4" relative="1" as="geometry">
            <mxPoint x="-6" y="-19" as="offset" />
          </mxGeometry>
        </mxCell>
        <mxCell id="1ZTYlAhCIOIMHy5LCIr5-71" value="*" style="edgeLabel;html=1;align=center;verticalAlign=middle;resizable=0;points=[];" parent="1ZTYlAhCIOIMHy5LCIr5-67" vertex="1" connectable="0">
          <mxGeometry x="0.5645" y="-1" relative="1" as="geometry">
            <mxPoint x="-9" y="3" as="offset" />
          </mxGeometry>
        </mxCell>
        <mxCell id="1ZTYlAhCIOIMHy5LCIr5-27" value="Team" style="swimlane;fontStyle=0;childLayout=stackLayout;horizontal=1;startSize=30;horizontalStack=0;resizeParent=1;resizeParentMax=0;resizeLast=0;collapsible=1;marginBottom=0;whiteSpace=wrap;html=1;fillColor=#f8cecc;strokeColor=#b85450;" parent="1" vertex="1">
          <mxGeometry x="529.23" y="360" width="270" height="240" as="geometry" />
        </mxCell>
        <mxCell id="1ZTYlAhCIOIMHy5LCIr5-28" value="id" style="text;strokeColor=none;fillColor=none;align=left;verticalAlign=middle;spacingLeft=4;spacingRight=4;overflow=hidden;points=[[0,0.5],[1,0.5]];portConstraint=eastwest;rotatable=0;whiteSpace=wrap;html=1;" parent="1ZTYlAhCIOIMHy5LCIr5-27" vertex="1">
          <mxGeometry y="30" width="270" height="30" as="geometry" />
        </mxCell>
        <mxCell id="1ZTYlAhCIOIMHy5LCIr5-29" value="avatar" style="text;strokeColor=none;fillColor=none;align=left;verticalAlign=middle;spacingLeft=4;spacingRight=4;overflow=hidden;points=[[0,0.5],[1,0.5]];portConstraint=eastwest;rotatable=0;whiteSpace=wrap;html=1;" parent="1ZTYlAhCIOIMHy5LCIr5-27" vertex="1">
          <mxGeometry y="60" width="270" height="30" as="geometry" />
        </mxCell>
        <mxCell id="1ZTYlAhCIOIMHy5LCIr5-44" value="name" style="text;strokeColor=none;fillColor=none;align=left;verticalAlign=middle;spacingLeft=4;spacingRight=4;overflow=hidden;points=[[0,0.5],[1,0.5]];portConstraint=eastwest;rotatable=0;whiteSpace=wrap;html=1;" parent="1ZTYlAhCIOIMHy5LCIr5-27" vertex="1">
          <mxGeometry y="90" width="270" height="30" as="geometry" />
        </mxCell>
        <mxCell id="1ZTYlAhCIOIMHy5LCIr5-30" value="slogan" style="text;strokeColor=none;fillColor=none;align=left;verticalAlign=middle;spacingLeft=4;spacingRight=4;overflow=hidden;points=[[0,0.5],[1,0.5]];portConstraint=eastwest;rotatable=0;whiteSpace=wrap;html=1;" parent="1ZTYlAhCIOIMHy5LCIr5-27" vertex="1">
          <mxGeometry y="120" width="270" height="30" as="geometry" />
        </mxCell>
        <mxCell id="1ZTYlAhCIOIMHy5LCIr5-31" value="description" style="text;strokeColor=none;fillColor=none;align=left;verticalAlign=middle;spacingLeft=4;spacingRight=4;overflow=hidden;points=[[0,0.5],[1,0.5]];portConstraint=eastwest;rotatable=0;whiteSpace=wrap;html=1;" parent="1ZTYlAhCIOIMHy5LCIr5-27" vertex="1">
          <mxGeometry y="150" width="270" height="30" as="geometry" />
        </mxCell>
        <mxCell id="1ZTYlAhCIOIMHy5LCIr5-36" value="pointsNumber" style="text;strokeColor=none;fillColor=none;align=left;verticalAlign=middle;spacingLeft=4;spacingRight=4;overflow=hidden;points=[[0,0.5],[1,0.5]];portConstraint=eastwest;rotatable=0;whiteSpace=wrap;html=1;" parent="1ZTYlAhCIOIMHy5LCIr5-27" vertex="1">
          <mxGeometry y="180" width="270" height="30" as="geometry" />
        </mxCell>
        <mxCell id="1ZTYlAhCIOIMHy5LCIr5-37" value="itemList" style="text;strokeColor=none;fillColor=none;align=left;verticalAlign=middle;spacingLeft=4;spacingRight=4;overflow=hidden;points=[[0,0.5],[1,0.5]];portConstraint=eastwest;rotatable=0;whiteSpace=wrap;html=1;" parent="1ZTYlAhCIOIMHy5LCIr5-27" vertex="1">
          <mxGeometry y="210" width="270" height="30" as="geometry" />
        </mxCell>
        <mxCell id="1ZTYlAhCIOIMHy5LCIr5-76" value="" style="endArrow=none;html=1;rounded=0;exitX=0.505;exitY=0.97;exitDx=0;exitDy=0;exitPerimeter=0;entryX=0.503;entryY=0.047;entryDx=0;entryDy=0;entryPerimeter=0;" parent="1ZTYlAhCIOIMHy5LCIr5-27" source="1ZTYlAhCIOIMHy5LCIr5-37" target="1ZTYlAhCIOIMHy5LCIr5-28" edge="1">
          <mxGeometry width="50" height="50" relative="1" as="geometry">
            <mxPoint x="-50" y="180" as="sourcePoint" />
            <mxPoint y="130" as="targetPoint" />
          </mxGeometry>
        </mxCell>
        <mxCell id="1ZTYlAhCIOIMHy5LCIr5-46" value="Game" style="swimlane;fontStyle=0;childLayout=stackLayout;horizontal=1;startSize=30;horizontalStack=0;resizeParent=1;resizeParentMax=0;resizeLast=0;collapsible=1;marginBottom=0;whiteSpace=wrap;html=1;fillColor=#f8cecc;strokeColor=#b85450;" parent="1" vertex="1">
          <mxGeometry x="450.46" y="800" width="349.54" height="300" as="geometry" />
        </mxCell>
        <mxCell id="1ZTYlAhCIOIMHy5LCIr5-47" value="id" style="text;strokeColor=none;fillColor=none;align=left;verticalAlign=middle;spacingLeft=4;spacingRight=4;overflow=hidden;points=[[0,0.5],[1,0.5]];portConstraint=eastwest;rotatable=0;whiteSpace=wrap;html=1;" parent="1ZTYlAhCIOIMHy5LCIr5-46" vertex="1">
          <mxGeometry y="30" width="349.54" height="30" as="geometry" />
        </mxCell>
        <mxCell id="1ZTYlAhCIOIMHy5LCIr5-48" value="created_at" style="text;strokeColor=none;fillColor=none;align=left;verticalAlign=middle;spacingLeft=4;spacingRight=4;overflow=hidden;points=[[0,0.5],[1,0.5]];portConstraint=eastwest;rotatable=0;whiteSpace=wrap;html=1;" parent="1ZTYlAhCIOIMHy5LCIr5-46" vertex="1">
          <mxGeometry y="60" width="349.54" height="30" as="geometry" />
        </mxCell>
        <mxCell id="1ZTYlAhCIOIMHy5LCIr5-49" value="updated_at" style="text;strokeColor=none;fillColor=none;align=left;verticalAlign=middle;spacingLeft=4;spacingRight=4;overflow=hidden;points=[[0,0.5],[1,0.5]];portConstraint=eastwest;rotatable=0;whiteSpace=wrap;html=1;" parent="1ZTYlAhCIOIMHy5LCIr5-46" vertex="1">
          <mxGeometry y="90" width="349.54" height="30" as="geometry" />
        </mxCell>
        <mxCell id="1ZTYlAhCIOIMHy5LCIr5-55" value="begin_at" style="text;strokeColor=none;fillColor=none;align=left;verticalAlign=middle;spacingLeft=4;spacingRight=4;overflow=hidden;points=[[0,0.5],[1,0.5]];portConstraint=eastwest;rotatable=0;whiteSpace=wrap;html=1;" parent="1ZTYlAhCIOIMHy5LCIr5-46" vertex="1">
          <mxGeometry y="120" width="349.54" height="30" as="geometry" />
        </mxCell>
        <mxCell id="1ZTYlAhCIOIMHy5LCIr5-115" value="finished_at" style="text;strokeColor=none;fillColor=none;align=left;verticalAlign=middle;spacingLeft=4;spacingRight=4;overflow=hidden;points=[[0,0.5],[1,0.5]];portConstraint=eastwest;rotatable=0;whiteSpace=wrap;html=1;" parent="1ZTYlAhCIOIMHy5LCIr5-46" vertex="1">
          <mxGeometry y="150" width="349.54" height="30" as="geometry" />
        </mxCell>
        <mxCell id="1ZTYlAhCIOIMHy5LCIr5-61" value="timeUnit" style="text;strokeColor=none;fillColor=none;align=left;verticalAlign=middle;spacingLeft=4;spacingRight=4;overflow=hidden;points=[[0,0.5],[1,0.5]];portConstraint=eastwest;rotatable=0;whiteSpace=wrap;html=1;" parent="1ZTYlAhCIOIMHy5LCIr5-46" vertex="1">
          <mxGeometry y="180" width="349.54" height="30" as="geometry" />
        </mxCell>
        <mxCell id="VcVvt1ry-603SqcqHxDT-1" value="is_waiting" style="text;strokeColor=none;fillColor=none;align=left;verticalAlign=middle;spacingLeft=4;spacingRight=4;overflow=hidden;points=[[0,0.5],[1,0.5]];portConstraint=eastwest;rotatable=0;whiteSpace=wrap;html=1;" vertex="1" parent="1ZTYlAhCIOIMHy5LCIr5-46">
          <mxGeometry y="210" width="349.54" height="30" as="geometry" />
        </mxCell>
        <mxCell id="1ZTYlAhCIOIMHy5LCIr5-63" value="is_pending" style="text;strokeColor=none;fillColor=none;align=left;verticalAlign=middle;spacingLeft=4;spacingRight=4;overflow=hidden;points=[[0,0.5],[1,0.5]];portConstraint=eastwest;rotatable=0;whiteSpace=wrap;html=1;" parent="1ZTYlAhCIOIMHy5LCIr5-46" vertex="1">
          <mxGeometry y="240" width="349.54" height="30" as="geometry" />
        </mxCell>
        <mxCell id="1ZTYlAhCIOIMHy5LCIr5-57" value="is_twoVsTwo" style="text;strokeColor=none;fillColor=none;align=left;verticalAlign=middle;spacingLeft=4;spacingRight=4;overflow=hidden;points=[[0,0.5],[1,0.5]];portConstraint=eastwest;rotatable=0;whiteSpace=wrap;html=1;" parent="1ZTYlAhCIOIMHy5LCIr5-46" vertex="1">
          <mxGeometry y="270" width="349.54" height="30" as="geometry" />
        </mxCell>
        <mxCell id="1ZTYlAhCIOIMHy5LCIr5-78" value="" style="endArrow=none;html=1;rounded=0;exitX=0.454;exitY=1.002;exitDx=0;exitDy=0;exitPerimeter=0;entryX=0.457;entryY=-0.032;entryDx=0;entryDy=0;entryPerimeter=0;" parent="1ZTYlAhCIOIMHy5LCIr5-46" source="1ZTYlAhCIOIMHy5LCIr5-57" target="1ZTYlAhCIOIMHy5LCIr5-47" edge="1">
          <mxGeometry width="50" height="50" relative="1" as="geometry">
            <mxPoint x="180.00000000000006" y="230" as="sourcePoint" />
            <mxPoint x="230.00000000000006" y="180" as="targetPoint" />
          </mxGeometry>
        </mxCell>
        <mxCell id="1ZTYlAhCIOIMHy5LCIr5-72" value="Bet" style="swimlane;fontStyle=0;childLayout=stackLayout;horizontal=1;startSize=30;horizontalStack=0;resizeParent=1;resizeParentMax=0;resizeLast=0;collapsible=1;marginBottom=0;whiteSpace=wrap;html=1;fillColor=#d5e8d4;strokeColor=#82b366;" parent="1" vertex="1">
          <mxGeometry x="50" y="1010" width="140" height="150" as="geometry" />
        </mxCell>
        <mxCell id="1ZTYlAhCIOIMHy5LCIr5-73" value="id_player" style="text;strokeColor=none;fillColor=none;align=left;verticalAlign=middle;spacingLeft=4;spacingRight=4;overflow=hidden;points=[[0,0.5],[1,0.5]];portConstraint=eastwest;rotatable=0;whiteSpace=wrap;html=1;" parent="1ZTYlAhCIOIMHy5LCIr5-72" vertex="1">
          <mxGeometry y="30" width="140" height="30" as="geometry" />
        </mxCell>
        <mxCell id="1ZTYlAhCIOIMHy5LCIr5-74" value="id_game" style="text;strokeColor=none;fillColor=none;align=left;verticalAlign=middle;spacingLeft=4;spacingRight=4;overflow=hidden;points=[[0,0.5],[1,0.5]];portConstraint=eastwest;rotatable=0;whiteSpace=wrap;html=1;" parent="1ZTYlAhCIOIMHy5LCIr5-72" vertex="1">
          <mxGeometry y="60" width="140" height="30" as="geometry" />
        </mxCell>
        <mxCell id="VcVvt1ry-603SqcqHxDT-2" value="id_team" style="text;strokeColor=none;fillColor=none;align=left;verticalAlign=middle;spacingLeft=4;spacingRight=4;overflow=hidden;points=[[0,0.5],[1,0.5]];portConstraint=eastwest;rotatable=0;whiteSpace=wrap;html=1;" vertex="1" parent="1ZTYlAhCIOIMHy5LCIr5-72">
          <mxGeometry y="90" width="140" height="30" as="geometry" />
        </mxCell>
        <mxCell id="1ZTYlAhCIOIMHy5LCIr5-75" value="pointBetted" style="text;strokeColor=none;fillColor=none;align=left;verticalAlign=middle;spacingLeft=4;spacingRight=4;overflow=hidden;points=[[0,0.5],[1,0.5]];portConstraint=eastwest;rotatable=0;whiteSpace=wrap;html=1;" parent="1ZTYlAhCIOIMHy5LCIr5-72" vertex="1">
          <mxGeometry y="120" width="140" height="30" as="geometry" />
        </mxCell>
        <mxCell id="1ZTYlAhCIOIMHy5LCIr5-38" value="created_at" style="text;strokeColor=none;fillColor=none;align=left;verticalAlign=middle;spacingLeft=4;spacingRight=4;overflow=hidden;points=[[0,0.5],[1,0.5]];portConstraint=eastwest;rotatable=0;whiteSpace=wrap;html=1;" parent="1" vertex="1">
          <mxGeometry x="669.23" y="390" width="140" height="30" as="geometry" />
        </mxCell>
        <mxCell id="1ZTYlAhCIOIMHy5LCIr5-39" value="updated_at" style="text;strokeColor=none;fillColor=none;align=left;verticalAlign=middle;spacingLeft=4;spacingRight=4;overflow=hidden;points=[[0,0.5],[1,0.5]];portConstraint=eastwest;rotatable=0;whiteSpace=wrap;html=1;" parent="1" vertex="1">
          <mxGeometry x="669.23" y="420" width="140" height="30" as="geometry" />
        </mxCell>
        <mxCell id="1ZTYlAhCIOIMHy5LCIr5-40" value="is_recruiting" style="text;strokeColor=none;fillColor=none;align=left;verticalAlign=middle;spacingLeft=4;spacingRight=4;overflow=hidden;points=[[0,0.5],[1,0.5]];portConstraint=eastwest;rotatable=0;whiteSpace=wrap;html=1;" parent="1" vertex="1">
          <mxGeometry x="669.23" y="450" width="140" height="30" as="geometry" />
        </mxCell>
        <mxCell id="1ZTYlAhCIOIMHy5LCIr5-41" value="is_dissolute" style="text;strokeColor=none;fillColor=none;align=left;verticalAlign=middle;spacingLeft=4;spacingRight=4;overflow=hidden;points=[[0,0.5],[1,0.5]];portConstraint=eastwest;rotatable=0;whiteSpace=wrap;html=1;" parent="1" vertex="1">
          <mxGeometry x="669.23" y="480" width="140" height="30" as="geometry" />
        </mxCell>
        <mxCell id="1ZTYlAhCIOIMHy5LCIr5-62" value="winningReason" style="text;strokeColor=none;fillColor=none;align=left;verticalAlign=middle;spacingLeft=4;spacingRight=4;overflow=hidden;points=[[0,0.5],[1,0.5]];portConstraint=eastwest;rotatable=0;whiteSpace=wrap;html=1;" parent="1" vertex="1">
          <mxGeometry x="640.46" y="1010" width="140" height="30" as="geometry" />
        </mxCell>
        <mxCell id="1ZTYlAhCIOIMHy5LCIr5-58" value="vip_player" style="text;strokeColor=none;fillColor=none;align=left;verticalAlign=middle;spacingLeft=4;spacingRight=4;overflow=hidden;points=[[0,0.5],[1,0.5]];portConstraint=eastwest;rotatable=0;whiteSpace=wrap;html=1;" parent="1" vertex="1">
          <mxGeometry x="640.46" y="980" width="140" height="30" as="geometry" />
        </mxCell>
        <mxCell id="1ZTYlAhCIOIMHy5LCIr5-56" value="winner" style="text;strokeColor=none;fillColor=none;align=left;verticalAlign=middle;spacingLeft=4;spacingRight=4;overflow=hidden;points=[[0,0.5],[1,0.5]];portConstraint=eastwest;rotatable=0;whiteSpace=wrap;html=1;" parent="1" vertex="1">
          <mxGeometry x="640.46" y="950" width="140" height="30" as="geometry" />
        </mxCell>
        <mxCell id="1ZTYlAhCIOIMHy5LCIr5-54" value="scoreRedTeam" style="text;strokeColor=none;fillColor=none;align=left;verticalAlign=middle;spacingLeft=4;spacingRight=4;overflow=hidden;points=[[0,0.5],[1,0.5]];portConstraint=eastwest;rotatable=0;whiteSpace=wrap;html=1;" parent="1" vertex="1">
          <mxGeometry x="640.46" y="920" width="140" height="30" as="geometry" />
        </mxCell>
        <mxCell id="1ZTYlAhCIOIMHy5LCIr5-52" value="id_redTeam" style="text;strokeColor=none;fillColor=none;align=left;verticalAlign=middle;spacingLeft=4;spacingRight=4;overflow=hidden;points=[[0,0.5],[1,0.5]];portConstraint=eastwest;rotatable=0;whiteSpace=wrap;html=1;" parent="1" vertex="1">
          <mxGeometry x="640.46" y="890" width="140" height="30" as="geometry" />
        </mxCell>
        <mxCell id="1ZTYlAhCIOIMHy5LCIr5-53" value="scoreBlueTeam" style="text;strokeColor=none;fillColor=none;align=left;verticalAlign=middle;spacingLeft=4;spacingRight=4;overflow=hidden;points=[[0,0.5],[1,0.5]];portConstraint=eastwest;rotatable=0;whiteSpace=wrap;html=1;" parent="1" vertex="1">
          <mxGeometry x="640.46" y="860" width="140" height="30" as="geometry" />
        </mxCell>
        <mxCell id="1ZTYlAhCIOIMHy5LCIr5-51" value="id_blueTeam" style="text;strokeColor=none;fillColor=none;align=left;verticalAlign=middle;spacingLeft=4;spacingRight=4;overflow=hidden;points=[[0,0.5],[1,0.5]];portConstraint=eastwest;rotatable=0;whiteSpace=wrap;html=1;" parent="1" vertex="1">
          <mxGeometry x="640.46" y="830" width="140" height="30" as="geometry" />
        </mxCell>
        <mxCell id="1ZTYlAhCIOIMHy5LCIr5-116" style="edgeStyle=orthogonalEdgeStyle;rounded=0;orthogonalLoop=1;jettySize=auto;html=1;entryX=0.5;entryY=0;entryDx=0;entryDy=0;endArrow=none;endFill=0;" parent="1" source="1ZTYlAhCIOIMHy5LCIr5-79" target="1ZTYlAhCIOIMHy5LCIr5-27" edge="1">
          <mxGeometry relative="1" as="geometry">
            <Array as="points">
              <mxPoint x="664" y="160" />
            </Array>
          </mxGeometry>
        </mxCell>
        <mxCell id="1ZTYlAhCIOIMHy5LCIr5-117" value="*" style="edgeLabel;html=1;align=center;verticalAlign=middle;resizable=0;points=[];" parent="1ZTYlAhCIOIMHy5LCIr5-116" vertex="1" connectable="0">
          <mxGeometry x="-0.9526" relative="1" as="geometry">
            <mxPoint y="-10" as="offset" />
          </mxGeometry>
        </mxCell>
        <mxCell id="1ZTYlAhCIOIMHy5LCIr5-118" value="*" style="edgeLabel;html=1;align=center;verticalAlign=middle;resizable=0;points=[];" parent="1ZTYlAhCIOIMHy5LCIr5-116" vertex="1" connectable="0">
          <mxGeometry x="0.9394" relative="1" as="geometry">
            <mxPoint x="6" as="offset" />
          </mxGeometry>
        </mxCell>
        <mxCell id="1ZTYlAhCIOIMHy5LCIr5-79" value="Shop" style="swimlane;fontStyle=0;childLayout=stackLayout;horizontal=1;startSize=30;horizontalStack=0;resizeParent=1;resizeParentMax=0;resizeLast=0;collapsible=1;marginBottom=0;whiteSpace=wrap;html=1;fillColor=#f8cecc;strokeColor=#b85450;" parent="1" vertex="1">
          <mxGeometry x="260" y="40" width="290" height="210" as="geometry" />
        </mxCell>
        <mxCell id="1ZTYlAhCIOIMHy5LCIr5-80" value="id" style="text;strokeColor=none;fillColor=none;align=left;verticalAlign=middle;spacingLeft=4;spacingRight=4;overflow=hidden;points=[[0,0.5],[1,0.5]];portConstraint=eastwest;rotatable=0;whiteSpace=wrap;html=1;" parent="1ZTYlAhCIOIMHy5LCIr5-79" vertex="1">
          <mxGeometry y="30" width="290" height="30" as="geometry" />
        </mxCell>
        <mxCell id="1ZTYlAhCIOIMHy5LCIr5-81" value="name" style="text;strokeColor=none;fillColor=none;align=left;verticalAlign=middle;spacingLeft=4;spacingRight=4;overflow=hidden;points=[[0,0.5],[1,0.5]];portConstraint=eastwest;rotatable=0;whiteSpace=wrap;html=1;" parent="1ZTYlAhCIOIMHy5LCIr5-79" vertex="1">
          <mxGeometry y="60" width="290" height="30" as="geometry" />
        </mxCell>
        <mxCell id="1ZTYlAhCIOIMHy5LCIr5-101" value="description" style="text;strokeColor=none;fillColor=none;align=left;verticalAlign=middle;spacingLeft=4;spacingRight=4;overflow=hidden;points=[[0,0.5],[1,0.5]];portConstraint=eastwest;rotatable=0;whiteSpace=wrap;html=1;" parent="1ZTYlAhCIOIMHy5LCIr5-79" vertex="1">
          <mxGeometry y="90" width="290" height="30" as="geometry" />
        </mxCell>
        <mxCell id="1ZTYlAhCIOIMHy5LCIr5-83" value="price" style="text;strokeColor=none;fillColor=none;align=left;verticalAlign=middle;spacingLeft=4;spacingRight=4;overflow=hidden;points=[[0,0.5],[1,0.5]];portConstraint=eastwest;rotatable=0;whiteSpace=wrap;html=1;" parent="1ZTYlAhCIOIMHy5LCIr5-79" vertex="1">
          <mxGeometry y="120" width="290" height="30" as="geometry" />
        </mxCell>
        <mxCell id="1ZTYlAhCIOIMHy5LCIr5-88" value="path" style="text;strokeColor=none;fillColor=none;align=left;verticalAlign=middle;spacingLeft=4;spacingRight=4;overflow=hidden;points=[[0,0.5],[1,0.5]];portConstraint=eastwest;rotatable=0;whiteSpace=wrap;html=1;" parent="1ZTYlAhCIOIMHy5LCIr5-79" vertex="1">
          <mxGeometry y="150" width="290" height="30" as="geometry" />
        </mxCell>
        <mxCell id="1ZTYlAhCIOIMHy5LCIr5-82" value="condition" style="text;strokeColor=none;fillColor=none;align=left;verticalAlign=middle;spacingLeft=4;spacingRight=4;overflow=hidden;points=[[0,0.5],[1,0.5]];portConstraint=eastwest;rotatable=0;whiteSpace=wrap;html=1;" parent="1ZTYlAhCIOIMHy5LCIr5-79" vertex="1">
          <mxGeometry y="180" width="290" height="30" as="geometry" />
        </mxCell>
        <mxCell id="1ZTYlAhCIOIMHy5LCIr5-97" value="" style="endArrow=none;html=1;rounded=0;exitX=0.443;exitY=1.063;exitDx=0;exitDy=0;exitPerimeter=0;entryX=0.449;entryY=-0.042;entryDx=0;entryDy=0;entryPerimeter=0;" parent="1ZTYlAhCIOIMHy5LCIr5-79" source="1ZTYlAhCIOIMHy5LCIr5-82" target="1ZTYlAhCIOIMHy5LCIr5-80" edge="1">
          <mxGeometry width="50" height="50" relative="1" as="geometry">
            <mxPoint x="100" y="270" as="sourcePoint" />
            <mxPoint x="150" y="220" as="targetPoint" />
          </mxGeometry>
        </mxCell>
        <mxCell id="1ZTYlAhCIOIMHy5LCIr5-85" value="created_at" style="text;strokeColor=none;fillColor=none;align=left;verticalAlign=middle;spacingLeft=4;spacingRight=4;overflow=hidden;points=[[0,0.5],[1,0.5]];portConstraint=eastwest;rotatable=0;whiteSpace=wrap;html=1;" parent="1" vertex="1">
          <mxGeometry x="400" y="70" width="140" height="30" as="geometry" />
        </mxCell>
        <mxCell id="1ZTYlAhCIOIMHy5LCIr5-86" value="updated_at" style="text;strokeColor=none;fillColor=none;align=left;verticalAlign=middle;spacingLeft=4;spacingRight=4;overflow=hidden;points=[[0,0.5],[1,0.5]];portConstraint=eastwest;rotatable=0;whiteSpace=wrap;html=1;" parent="1" vertex="1">
          <mxGeometry x="400" y="100" width="140" height="30" as="geometry" />
        </mxCell>
        <mxCell id="1ZTYlAhCIOIMHy5LCIr5-84" value="is_available" style="text;strokeColor=none;fillColor=none;align=left;verticalAlign=middle;spacingLeft=4;spacingRight=4;overflow=hidden;points=[[0,0.5],[1,0.5]];portConstraint=eastwest;rotatable=0;whiteSpace=wrap;html=1;" parent="1" vertex="1">
          <mxGeometry x="400" y="130" width="140" height="30" as="geometry" />
        </mxCell>
        <mxCell id="1ZTYlAhCIOIMHy5LCIr5-96" value="is_exclusive" style="text;strokeColor=none;fillColor=none;align=left;verticalAlign=middle;spacingLeft=4;spacingRight=4;overflow=hidden;points=[[0,0.5],[1,0.5]];portConstraint=eastwest;rotatable=0;whiteSpace=wrap;html=1;" parent="1" vertex="1">
          <mxGeometry x="400" y="160" width="140" height="30" as="geometry" />
        </mxCell>
        <mxCell id="1ZTYlAhCIOIMHy5LCIr5-99" style="edgeStyle=orthogonalEdgeStyle;rounded=0;orthogonalLoop=1;jettySize=auto;html=1;entryX=0.413;entryY=0.002;entryDx=0;entryDy=0;entryPerimeter=0;endArrow=none;endFill=0;" parent="1" source="1ZTYlAhCIOIMHy5LCIr5-79" target="1ZTYlAhCIOIMHy5LCIr5-2" edge="1">
          <mxGeometry relative="1" as="geometry">
            <Array as="points">
              <mxPoint x="150" y="145" />
              <mxPoint x="150" y="358" />
              <mxPoint x="150" y="358" />
            </Array>
          </mxGeometry>
        </mxCell>
        <mxCell id="1ZTYlAhCIOIMHy5LCIr5-100" value="*" style="edgeLabel;html=1;align=center;verticalAlign=middle;resizable=0;points=[];" parent="1ZTYlAhCIOIMHy5LCIr5-99" vertex="1" connectable="0">
          <mxGeometry x="-0.9551" y="-2" relative="1" as="geometry">
            <mxPoint x="-3" y="-13" as="offset" />
          </mxGeometry>
        </mxCell>
        <mxCell id="1ZTYlAhCIOIMHy5LCIr5-102" value="*" style="edgeLabel;html=1;align=center;verticalAlign=middle;resizable=0;points=[];" parent="1ZTYlAhCIOIMHy5LCIr5-99" vertex="1" connectable="0">
          <mxGeometry x="0.7858" relative="1" as="geometry">
            <mxPoint x="-10" y="24" as="offset" />
          </mxGeometry>
        </mxCell>
        <mxCell id="1ZTYlAhCIOIMHy5LCIr5-106" value="ItemTeamCollection" style="swimlane;fontStyle=0;childLayout=stackLayout;horizontal=1;startSize=30;horizontalStack=0;resizeParent=1;resizeParentMax=0;resizeLast=0;collapsible=1;marginBottom=0;whiteSpace=wrap;html=1;fillColor=#d5e8d4;strokeColor=#82b366;" parent="1" vertex="1">
          <mxGeometry x="655.46" y="40" width="140" height="90" as="geometry" />
        </mxCell>
        <mxCell id="1ZTYlAhCIOIMHy5LCIr5-107" value="id_team" style="text;strokeColor=none;fillColor=none;align=left;verticalAlign=middle;spacingLeft=4;spacingRight=4;overflow=hidden;points=[[0,0.5],[1,0.5]];portConstraint=eastwest;rotatable=0;whiteSpace=wrap;html=1;" parent="1ZTYlAhCIOIMHy5LCIr5-106" vertex="1">
          <mxGeometry y="30" width="140" height="30" as="geometry" />
        </mxCell>
        <mxCell id="1ZTYlAhCIOIMHy5LCIr5-108" value="id_item" style="text;strokeColor=none;fillColor=none;align=left;verticalAlign=middle;spacingLeft=4;spacingRight=4;overflow=hidden;points=[[0,0.5],[1,0.5]];portConstraint=eastwest;rotatable=0;whiteSpace=wrap;html=1;" parent="1ZTYlAhCIOIMHy5LCIr5-106" vertex="1">
          <mxGeometry y="60" width="140" height="30" as="geometry" />
        </mxCell>
        <mxCell id="1ZTYlAhCIOIMHy5LCIr5-110" value="totalPointEarned" style="text;strokeColor=none;fillColor=none;align=left;verticalAlign=middle;spacingLeft=4;spacingRight=4;overflow=hidden;points=[[0,0.5],[1,0.5]];portConstraint=eastwest;rotatable=0;whiteSpace=wrap;html=1;" parent="1" vertex="1">
          <mxGeometry x="669.23" y="510" width="220" height="30" as="geometry" />
        </mxCell>
        <mxCell id="1ZTYlAhCIOIMHy5LCIr5-111" value="totalPointsEarned" style="text;strokeColor=none;fillColor=none;align=left;verticalAlign=middle;spacingLeft=4;spacingRight=4;overflow=hidden;points=[[0,0.5],[1,0.5]];portConstraint=eastwest;rotatable=0;whiteSpace=wrap;html=1;" parent="1" vertex="1">
          <mxGeometry x="180" y="720" width="170" height="30" as="geometry" />
        </mxCell>
        <mxCell id="1ZTYlAhCIOIMHy5LCIr5-112" value="ItemUserCollection" style="swimlane;fontStyle=0;childLayout=stackLayout;horizontal=1;startSize=30;horizontalStack=0;resizeParent=1;resizeParentMax=0;resizeLast=0;collapsible=1;marginBottom=0;whiteSpace=wrap;html=1;fillColor=#d5e8d4;strokeColor=#82b366;" parent="1" vertex="1">
          <mxGeometry x="10" y="40" width="140" height="90" as="geometry" />
        </mxCell>
        <mxCell id="1ZTYlAhCIOIMHy5LCIr5-113" value="id_player" style="text;strokeColor=none;fillColor=none;align=left;verticalAlign=middle;spacingLeft=4;spacingRight=4;overflow=hidden;points=[[0,0.5],[1,0.5]];portConstraint=eastwest;rotatable=0;whiteSpace=wrap;html=1;" parent="1ZTYlAhCIOIMHy5LCIr5-112" vertex="1">
          <mxGeometry y="30" width="140" height="30" as="geometry" />
        </mxCell>
        <mxCell id="1ZTYlAhCIOIMHy5LCIr5-114" value="id_item" style="text;strokeColor=none;fillColor=none;align=left;verticalAlign=middle;spacingLeft=4;spacingRight=4;overflow=hidden;points=[[0,0.5],[1,0.5]];portConstraint=eastwest;rotatable=0;whiteSpace=wrap;html=1;" parent="1ZTYlAhCIOIMHy5LCIr5-112" vertex="1">
          <mxGeometry y="60" width="140" height="30" as="geometry" />
        </mxCell>
        <mxCell id="1ZTYlAhCIOIMHy5LCIr5-119" value="FOOTFRENZY" style="rounded=0;whiteSpace=wrap;html=1;fillColor=#fff2cc;strokeColor=#d6b656;" parent="1" vertex="1">
          <mxGeometry width="820" height="20" as="geometry" />
        </mxCell>
        <mxCell id="1ZTYlAhCIOIMHy5LCIr5-64" value="invite_link" style="text;strokeColor=none;fillColor=none;align=left;verticalAlign=middle;spacingLeft=4;spacingRight=4;overflow=hidden;points=[[0,0.5],[1,0.5]];portConstraint=eastwest;rotatable=0;whiteSpace=wrap;html=1;" parent="1" vertex="1">
          <mxGeometry x="640.46" y="1040" width="350" height="30" as="geometry" />
        </mxCell>
        <mxCell id="1ZTYlAhCIOIMHy5LCIr5-65" value="is_friendly" style="text;strokeColor=none;fillColor=none;align=left;verticalAlign=middle;spacingLeft=4;spacingRight=4;overflow=hidden;points=[[0,0.5],[1,0.5]];portConstraint=eastwest;rotatable=0;whiteSpace=wrap;html=1;" parent="1" vertex="1">
          <mxGeometry x="640.46" y="1070" width="319.54" height="30" as="geometry" />
        </mxCell>
      </root>
    </mxGraphModel>
  </diagram>
</mxfile>
